<?xml version="1.0" encoding="UTF-8" standalone="no"?>
<svg
   xmlns:dc="http://purl.org/dc/elements/1.1/"
   xmlns:cc="http://creativecommons.org/ns#"
   xmlns:rdf="http://www.w3.org/1999/02/22-rdf-syntax-ns#"
   xmlns:svg="http://www.w3.org/2000/svg"
   xmlns="http://www.w3.org/2000/svg"
   xmlns:sodipodi="http://sodipodi.sourceforge.net/DTD/sodipodi-0.dtd"
   xmlns:inkscape="http://www.inkscape.org/namespaces/inkscape"
   sodipodi:docname="tubuio.svg"
   inkscape:version="1.0 (4035a4fb49, 2020-05-01)"
   id="svg1141"
   version="1.1"
   viewBox="0 0 584.97101 162.69901"
   height="162.69901mm"
   width="584.97101mm">
  <defs
     id="defs1135" />
  <sodipodi:namedview
     inkscape:window-maximized="1"
     inkscape:window-y="-8"
     inkscape:window-x="1912"
     inkscape:window-height="1027"
     inkscape:window-width="1920"
     inkscape:showpageshadow="false"
     showgrid="false"
     inkscape:document-rotation="0"
     inkscape:current-layer="layer1"
     inkscape:document-units="mm"
     inkscape:cy="416.34802"
     inkscape:cx="762.86742"
     inkscape:zoom="0.16295378"
     inkscape:pageshadow="2"
     inkscape:pageopacity="0.0"
     borderopacity="1.0"
     bordercolor="#666666"
     pagecolor="#ffffff"
     id="base" />
  <metadata
     id="metadata1138">
    <rdf:RDF>
      <cc:Work
         rdf:about="">
        <dc:format>image/svg+xml</dc:format>
        <dc:type
           rdf:resource="http://purl.org/dc/dcmitype/StillImage" />
        <dc:title></dc:title>
      </cc:Work>
    </rdf:RDF>
  </metadata>
  <g
     id="layer1"
     inkscape:groupmode="layer"
     inkscape:label="Layer 1">
    <g
       transform="translate(177.58075,-63.793354)"
       id="g1764">
      <rect
         ry="20.461378"
         y="63.793194"
         x="-177.58075"
         height="162.69933"
         width="584.97101"
         id="rect1081"
         style="fill:#1c73ed;fill-opacity:1;stroke-width:0.406442" />
      <g
         transform="translate(-207.01103,-1245.0965)"
         id="g1113">
        <g
           transform="translate(4.8427891,188.28984)"
           style="fill:#ffffff;fill-opacity:1"
           id="g1091">
          <path
             id="path1083"
             d="m 364.92081,1259.4864 c -3.7807,-0.8097 -6.6141,-1.8298 -10.4511,-3.7626 -4.644,-2.3393 -7.9071,-4.6899 -11.5048,-8.2875 -6.8812,-6.8812 -11.4219,-15.7368 -12.5712,-24.5172 -0.1922,-1.4681 -0.2623,-8.8543 -0.2107,-22.1772 l 0.077,-19.9761 0.8229,-1.7197 c 3.6074,-7.5388 12.9222,-9.4 18.8069,-3.7578 1.6548,1.5866 2.5474,2.9754 3.2468,5.0515 0.5207,1.5455 0.539,2.1939 0.539,19.0517 0,10.9979 0.1051,18.2077 0.2843,19.4959 1.5168,10.9056 11.9244,18.9943 22.6309,17.5886 8.0921,-1.0624 14.5126,-6.1384 16.9946,-13.4355 l 0.6999,-2.058 0.1423,-19.5792 c 0.1242,-17.0984 0.1965,-19.738 0.5705,-20.8333 1.9287,-5.6479 7.7916,-9.3918 13.2161,-8.4395 4.7451,0.833 9.0289,4.9098 9.991,9.5083 0.3893,1.8608 0.4019,34.9127 0.015,38.7204 -0.762,7.4942 -3.0766,13.9248 -7.3159,20.3254 -2.7974,4.2237 -7.7703,9.1967 -11.994,11.9941 -4.7939,3.1751 -9.5457,5.2276 -15.2042,6.5675 -2.0438,0.4839 -3.3749,0.577 -9.3927,0.657 -6.1542,0.082 -7.3026,0.031 -9.3927,-0.4168 z"
             style="fill:#ffffff;fill-opacity:1;stroke-width:0.264583" />
          <path
             d="m 244.7953,1144.1976 c -3.0855,0 -3.23378,0.027 -5.02708,0.9074 -2.2789,1.1191 -4.43246,3.2294 -5.68906,5.5748 l -0.92139,1.7198 -0.0698,33.8667 c -0.0677,32.5878 -0.0509,33.9816 0.44751,36.9094 1.9877,11.6759 9.51128,22.8522 19.99568,29.7031 4.8042,3.1392 11.16358,5.7299 16.27188,6.629 3.1921,0.5619 11.33401,0.5723 14.57119,0.019 9.03682,-1.5456 17.1604,-5.8138 23.80321,-12.5067 10.7781,-10.8595 15.07247,-25.5043 11.99616,-40.9097 -1.1603,-5.81 -4.0976,-12.0148 -8.14163,-17.1979 -5.36289,-6.8735 -13.82995,-12.423 -22.79446,-14.9402 -10.11341,-2.8398 -22.41238,-2.0009 -30.50408,2.0805 -0.5329,0.2689 -1.23134,0.5702 -1.55184,0.6692 l -0.58291,0.1799 -0.0791,-11.9864 c -0.073,-11.1173 -0.11529,-12.0726 -0.58549,-13.1769 -1.3146,-3.088 -3.26972,-5.1295 -6.50452,-6.7924 -1.3594,-0.6988 -1.66454,-0.7483 -4.63434,-0.7483 z m 16.4884,46.7981 h 33.8398 c 3.98359,0 7.19026,3.2072 7.19026,7.1908 v 33.8393 c 0,3.9836 -3.20667,7.1907 -7.19026,7.1907 h -33.8398 c -3.9836,0 -7.19026,-3.2071 -7.19026,-7.1907 v -33.8393 c 0,-3.9836 3.20666,-7.1908 7.19026,-7.1908 z"
             style="fill:#ffffff;fill-opacity:1;stroke-width:0.264583"
             id="path1085" />
          <path
             id="path1087"
             d="m 169.89301,1259.3836 c -16.8083,-3.532 -30.6998,-17.5926 -34.158,-34.5739 -0.4299,-2.1112 -0.4725,-4.1926 -0.4725,-23.0902 v -20.7698 l 0.5938,-1.4664 c 1.2101,-2.9886 3.99,-5.6683 7.1481,-6.8906 2.168,-0.8391 5.6856,-0.8393 7.822,-5e-4 2.2347,0.8774 4.6183,2.7813 5.9278,4.735 2.1096,3.1473 2.0087,2.0505 2.1834,23.7308 l 0.1556,19.3146 0.6124,1.7141 c 2.9701,8.3139 9.6357,13.6384 18.0574,14.4241 7.8116,0.7288 16.2973,-3.9191 19.6566,-10.7666 2.2046,-4.4938 2.0885,-3.1951 2.254,-25.2153 l 0.1472,-19.5792 0.8537,-1.8024 c 1.0946,-2.3111 3.5841,-4.9394 5.662,-5.9778 5.3005,-2.6486 11.2102,-1.0613 14.947,4.0148 0.6603,0.8969 1.381,2.3034 1.6855,3.2894 0.5116,1.6563 0.5318,2.4293 0.5268,20.1492 -0.01,19.5213 -0.1025,21.4726 -1.3022,26.1712 -4.3456,17.0201 -18.4521,29.9611 -35.7138,32.7633 -3.5571,0.5774 -13.5079,0.4732 -16.5868,-0.1738 z"
             style="fill:#ffffff;fill-opacity:1;stroke-width:0.264583" />
          <path
             id="path1089"
             d="m 88.544604,1259.5527 c -10.698,-1.6678 -20.7708,-7.0524 -27.4308,-14.6638 -6.3531,-7.2606 -9.9782,-15.8891 -10.8989,-25.9418 -0.395,-4.3124 -0.3834,-64.0407 0.013,-65.9343 1.5027,-7.1826 10.5254,-11.3296 17.3859,-7.9908 1.8085,0.8801 4.4047,3.4216 5.3993,5.2856 1.3876,2.6004 1.5277,3.7436 1.5277,12.4712 v 8.0142 h 16.3911 c 10.979396,0 16.854106,0.097 17.793206,0.2933 5.7597,1.2051 10.0139,7.6193 8.973,13.529 -0.8503,4.8272 -4.9897,9.2819 -9.5021,10.226 -0.9379,0.1962 -6.74881,0.2933 -17.550306,0.2933 h -16.1482 l 0.107,11.5756 c 0.101,10.9207 0.1399,11.6952 0.6887,13.6921 1.6596,6.0402 5.7469,11.0909 11.0215,13.6195 3.0765,1.4748 5.24,1.9441 8.9959,1.9511 5.665896,0.011 9.377806,-1.245 13.229106,-4.4747 1.1642,-0.9762 3.0083,-2.2023 4.098,-2.7244 1.7573,-0.8422 2.2658,-0.9608 4.4979,-1.0491 2.0557,-0.081 2.8233,0 4.1911,0.466 3.9228,1.3252 6.7594,4.0625 7.9915,7.7117 0.4752,1.4074 0.5566,2.1531 0.4759,4.359 -0.1306,3.5698 -0.9639,5.3338 -3.7865,8.015 -6.1339,5.8266 -14.1508,9.9146 -22.07861,11.2584 -3.1033,0.526 -12.058196,0.5365 -15.384196,0.018 z"
             style="fill:#ffffff;fill-opacity:1;stroke-width:0.264583" />
        </g>
        <path
           id="path1093"
           style="fill:#ffffff;fill-opacity:1;stroke-width:0.940664"
           d="m 545.04849,1360.3067 a 44.016067,44.016067 0 0 0 -44.01627,44.0163 44.016067,44.016067 0 0 0 44.01627,44.0157 44.016067,44.016067 0 0 0 44.01572,-44.0157 44.016067,44.016067 0 0 0 -44.01572,-44.0163 z m -0.0509,22.0084 a 22.008032,22.008032 0 0 1 0.0509,0 22.008032,22.008032 0 0 1 22.00787,22.0079 22.008032,22.008032 0 0 1 -22.00787,22.0078 22.008032,22.008032 0 0 1 -22.00787,-22.0078 22.008032,22.008032 0 0 1 21.95694,-22.0079 z" />
        <g
           transform="translate(-30.017783,188.28984)"
           id="g1099"
           style="fill:#ffffff">
          <circle
             style="fill:#ffffff;fill-opacity:1;stroke-width:0.255274"
             id="circle1095"
             cx="508.06787"
             cy="1156.2557"
             r="11.94488" />
          <rect
             ry="11.944851"
             y="1172.0958"
             x="496.12302"
             height="87.953056"
             width="23.889702"
             id="rect1097"
             style="fill:#ffffff;fill-opacity:1;stroke-width:0.203181" />
        </g>
        <circle
           style="fill:#ffffff;fill-opacity:1;stroke-width:0.255274"
           id="circle1101"
           cx="443.12308"
           cy="1436.3938"
           r="11.94488" />
      </g>
    </g>
  </g>
</svg>
